<svg xmlns="http://www.w3.org/2000/svg" viewBox="0 0 22.36 22.55"><defs><style>.cls-1,.cls-2{fill:#fff;stroke:#fff;stroke-miterlimit:10;}.cls-1{stroke-width:0.5px;}.cls-2{stroke-width:1.5px;}</style></defs><g id="Capa_2" data-name="Capa 2"><g id="Capa_1-2" data-name="Capa 1"><path class="cls-1" d="M21,22.3H15.73a1.1,1.1,0,0,1-1.09-1.1V13.3a.47.47,0,0,0-.46-.46H9.47A.46.46,0,0,0,9,13.3v7.9a1.11,1.11,0,0,1-1.1,1.1H2.39a1.09,1.09,0,0,1-1.1-.91l0-9.3H2l0,9.28a.48.48,0,0,0,.4.22H7.92a.39.39,0,0,0,.39-.39V13.3a1.16,1.16,0,0,1,1.16-1.16h4.71a1.16,1.16,0,0,1,1.16,1.16v7.9a.39.39,0,0,0,.39.39H21a.39.39,0,0,0,.4-.39V8.56a.61.61,0,0,0-.25-.49h0L12.91,1.36a2,2,0,0,0-2.47,0L3.86,6.64l-.44-.55L10,.83a2.72,2.72,0,0,1,3.34,0h0l8.24,6.7a1.31,1.31,0,0,1,.52,1V21.2A1.1,1.1,0,0,1,21,22.3Z"/><circle class="cls-2" cx="1.69" cy="13.33" r="0.94"/><circle class="cls-2" cx="3.74" cy="6.25" r="0.94"/></g></g></svg>