<svg xmlns="http://www.w3.org/2000/svg" viewBox="0 0 19.07 22.61"><defs><style>.cls-1{fill:#fff;}</style></defs><g id="Capa_2" data-name="Capa 2"><g id="Capa_1-2" data-name="Capa 1"><circle class="cls-1" cx="7.6" cy="17.54" r="1.62"/><circle class="cls-1" cx="7.6" cy="5" r="1.62"/><path class="cls-1" d="M17.18,22.61H8.91A2,2,0,0,1,7,20.48V18.36H8.18v2.12c0,.52.33,1,.73,1h8.27c.4,0,.73-.44.73-1V2.13c0-.53-.33-1-.73-1H8.91c-.4,0-.73.44-.73,1V6.48H7V2.13A2,2,0,0,1,8.91,0h8.27a2,2,0,0,1,1.89,2.13V20.48A2,2,0,0,1,17.18,22.61Z"/><path class="cls-1" d="M12.41,11.87H1.31a.55.55,0,1,1,0-1.1h11.1a.55.55,0,0,1,0,1.1Z"/><path class="cls-1" d="M3.92,15.37a.58.58,0,0,1-.41-.17L.25,11.94a.88.88,0,0,1,0-1.22L3.51,7.47a.58.58,0,1,1,.82.82l-3,3,3,3.05a.57.57,0,0,1,0,.82A.58.58,0,0,1,3.92,15.37Z"/></g></g></svg>