<svg xmlns="http://www.w3.org/2000/svg" viewBox="0 0 22.34 22.45"><defs><style>.cls-1,.cls-2{fill:#fff;stroke:#fff;stroke-miterlimit:10;}.cls-1{stroke-width:0.5px;}.cls-2{stroke-width:1.5px;}</style></defs><g id="Capa_2" data-name="Capa 2"><g id="Capa_1-2" data-name="Capa 1"><path class="cls-1" d="M.39,22.2l.21-.47A12.83,12.83,0,0,1,5,16.42a11,11,0,0,1,6.19-1.76h0c5.09.15,8.65,2.53,10.6,7.08l.17.46Zm.77-.42H21.24c-1.87-4.23-5.25-6.45-10-6.59C6.71,15.19,3.33,17.41,1.16,21.78Z"/><path class="cls-1" d="M5.89,8.07a5.63,5.63,0,0,0,2.8,3.46,5.76,5.76,0,0,0,4.53.25,5.43,5.43,0,0,0,3.14-3A5.84,5.84,0,0,0,16,3.5,5.39,5.39,0,0,0,11.76.91h0a5.7,5.7,0,0,0-4,1.1l-.27-.45A6.1,6.1,0,0,1,11.81.38,5.91,5.91,0,0,1,16.4,3.22a6.35,6.35,0,0,1,.45,5.72,6,6,0,0,1-3.45,3.34,6.32,6.32,0,0,1-5-.27A6.23,6.23,0,0,1,5.38,8.23Z"/><circle class="cls-2" cx="5.46" cy="7.78" r="0.85"/><circle class="cls-2" cx="7.84" cy="1.6" r="0.85"/></g></g></svg>